<?xml version="1.0" encoding="utf-8"?>
<!-- Generator: Adobe Illustrator 19.0.0, SVG Export Plug-In . SVG Version: 6.00 Build 0)  -->
<svg version="1.1" id="Layer_1" xmlns="http://www.w3.org/2000/svg" xmlns:xlink="http://www.w3.org/1999/xlink" x="0px" y="0px"
	 viewBox="0 0 500 500" style="enable-background:new 0 0 500 500;" xml:space="preserve">
<style type="text/css">
	.st0{fill:#FEFEFE;}
	.st1{fill:#474749;}
</style>
<g id="XMLID_1_">
	<path id="XMLID_2_" class="st0" d="M430,250c0,99.4-80.6,180-180,180c-99.4,0-180-80.6-180-180S150.6,70,250,70
		C349.4,70,430,150.6,430,250"/>
	<path id="XMLID_3_" class="st1" d="M250,67.5C149.2,67.5,67.5,149.2,67.5,250c0,100.8,81.7,182.5,182.5,182.5
		S432.5,350.8,432.5,250C432.5,149.2,350.8,67.5,250,67.5 M250,74.8c23.7,0,46.6,4.6,68.2,13.8c20.9,8.8,39.6,21.5,55.7,37.5
		s28.7,34.8,37.5,55.7c9.1,21.6,13.8,44.5,13.8,68.2s-4.6,46.6-13.8,68.2c-8.8,20.9-21.5,39.6-37.5,55.7s-34.8,28.7-55.7,37.5
		c-21.6,9.1-44.5,13.8-68.2,13.8s-46.6-4.6-68.2-13.8c-20.9-8.8-39.6-21.5-55.7-37.5s-28.7-34.8-37.5-55.7
		c-9.1-21.6-13.8-44.5-13.8-68.2s4.6-46.6,13.8-68.2c8.8-20.9,21.5-39.6,37.5-55.7s34.8-28.7,55.7-37.5
		C203.4,79.4,226.3,74.8,250,74.8 M205.4,314.5V171.6h24.1l20.4,65.8l20.9-65.8h23v142.8h-16.6V196l-17.3,56.3h-19.4L222.8,196
		v118.5H205.4z"/>
</g>
</svg>
